<svg width="24" height="20" viewBox="0 0 24 20" fill="none" xmlns="http://www.w3.org/2000/svg">
<path d="M0 14.0523C0 12.1351 0.422222 10.305 1.26667 8.56209C2.11111 6.81917 3.22222 5.22876 4.6 3.79085C6.02222 2.30937 7.55556 1.04575 9.2 0L10.4667 1.7647C8.86667 3.02832 7.55556 4.22658 6.53333 5.35947C5.55556 6.4488 4.68889 7.86492 3.93333 9.60784L5.86667 11.3072C6.88889 12.1351 7.57778 12.9412 7.93333 13.7255C8.28889 14.5098 8.46667 15.3159 8.46667 16.1438C8.46667 17.451 8.11111 18.4314 7.4 19.085C6.68889 19.695 5.73333 20 4.53333 20C3.86667 20 3.22222 19.9129 2.6 19.7386C2.02222 19.5207 1.46667 19.1721 0.933334 18.6928C0.311112 17.2113 0 15.6645 0 14.0523ZM13.5333 14.0523C13.5333 12.1351 13.9556 10.305 14.8 8.56209C15.6444 6.81917 16.7556 5.22876 18.1333 3.79085C19.5556 2.30937 21.0889 1.04575 22.7333 0L24 1.7647C22.4 3.02832 21.0889 4.22658 20.0667 5.35947C19.0889 6.4488 18.2222 7.86492 17.4667 9.60784L19.4 11.3072C20.4222 12.1351 21.1111 12.9412 21.4667 13.7255C21.8222 14.5098 22 15.3159 22 16.1438C22 17.451 21.6444 18.4314 20.9333 19.085C20.2222 19.695 19.2667 20 18.0667 20C17.4 20 16.7556 19.9129 16.1333 19.7386C15.5556 19.5207 15 19.1721 14.4667 18.6928C13.8444 17.2113 13.5333 15.6645 13.5333 14.0523Z" fill="#DBE0EC"/>
</svg>
